<?xml version="1.0" encoding="utf-8" standalone="no"?>
<!DOCTYPE svg PUBLIC "-//W3C//DTD SVG 1.1//EN"
  "http://www.w3.org/Graphics/SVG/1.1/DTD/svg11.dtd">
<svg xmlns:xlink="http://www.w3.org/1999/xlink" width="656.946563pt" height="224.82pt" viewBox="0 0 656.946563 224.82" xmlns="http://www.w3.org/2000/svg" version="1.1">
 <metadata>
  <rdf:RDF xmlns:dc="http://purl.org/dc/elements/1.1/" xmlns:cc="http://creativecommons.org/ns#" xmlns:rdf="http://www.w3.org/1999/02/22-rdf-syntax-ns#">
   <cc:Work>
    <dc:type rdf:resource="http://purl.org/dc/dcmitype/StillImage"/>
    <dc:date>2026-09-26T15:15:34.660648</dc:date>
    <dc:format>image/svg+xml</dc:format>
    <dc:creator>
     <cc:Agent>
      <dc:title>Matplotlib v3.11.2, https://matplotlib.org/</dc:title>
     </cc:Agent>
    </dc:creator>
   </cc:Work>
  </rdf:RDF>
 </metadata>
 <defs>
  <style type="text/css">*{stroke-linejoin: round; stroke-linecap: butt}</style>
 </defs>
 <g id="figure_1">
  <g id="patch_1">
   <path d="M 0 224.82 
L 656.946563 224.82 
L 656.946563 0 
L 0 0 
z
" style="fill: #ffffff"/>
  </g>
  <g id="axes_1">
   <g id="patch_2">
    <path d="M 32.186563 188.62 
L 229.226562 188.62 
L 229.226562 22.488 
L 32.186563 22.488 
z
" style="fill: #ffffff"/>
   </g>
   <g id="matplotlib.axis_1">
    <g id="xtick_1">
     <g id="line2d_1">
      <path d="M 41.142926 188.62 
L 41.142926 22.488 
" clip-path="url(#pd112a98af5)" style="fill: none; stroke: #b0b0b0; stroke-opacity: 0.2; stroke-width: 0.8; stroke-linecap: square"/>
     </g>
     <g id="line2d_2">
      <defs>
       <path id="m5f15b3c37b" d="M 0 0 
L 0 3.5 
" style="stroke: #536273; stroke-width: 0.8"/>
      </defs>
      <g>
       <use xlink:href="#m5f15b3c37b" x="41.142926" y="188.62" style="fill: #536273; stroke: #536273; stroke-width: 0.8"/>
      </g>
     </g>
     <g id="text_1">
      <text style="font-size: 9px; font-family: 'Heiti SC', sans-serif; text-anchor: middle; fill: #536273" x="41.142926" y="203.36" transform="rotate(-0 41.142926 203.36)">0</text>
     </g>
    </g>
    <g id="xtick_2">
     <g id="line2d_3">
      <path d="M 76.968381 188.62 
L 76.968381 22.488 
" clip-path="url(#pd112a98af5)" style="fill: none; stroke: #b0b0b0; stroke-opacity: 0.2; stroke-width: 0.8; stroke-linecap: square"/>
     </g>
     <g id="line2d_4">
      <g>
       <use xlink:href="#m5f15b3c37b" x="76.968381" y="188.62" style="fill: #536273; stroke: #536273; stroke-width: 0.8"/>
      </g>
     </g>
     <g id="text_2">
      <text style="font-size: 9px; font-family: 'Heiti SC', sans-serif; text-anchor: middle; fill: #536273" x="76.968381" y="203.36" transform="rotate(-0 76.968381 203.36)">5</text>
     </g>
    </g>
    <g id="xtick_3">
     <g id="line2d_5">
      <path d="M 112.793835 188.62 
L 112.793835 22.488 
" clip-path="url(#pd112a98af5)" style="fill: none; stroke: #b0b0b0; stroke-opacity: 0.2; stroke-width: 0.8; stroke-linecap: square"/>
     </g>
     <g id="line2d_6">
      <g>
       <use xlink:href="#m5f15b3c37b" x="112.793835" y="188.62" style="fill: #536273; stroke: #536273; stroke-width: 0.8"/>
      </g>
     </g>
     <g id="text_3">
      <text style="font-size: 9px; font-family: 'Heiti SC', sans-serif; text-anchor: middle; fill: #536273" x="112.793835" y="203.36" transform="rotate(-0 112.793835 203.36)">10</text>
     </g>
    </g>
    <g id="xtick_4">
     <g id="line2d_7">
      <path d="M 148.61929 188.62 
L 148.61929 22.488 
" clip-path="url(#pd112a98af5)" style="fill: none; stroke: #b0b0b0; stroke-opacity: 0.2; stroke-width: 0.8; stroke-linecap: square"/>
     </g>
     <g id="line2d_8">
      <g>
       <use xlink:href="#m5f15b3c37b" x="148.61929" y="188.62" style="fill: #536273; stroke: #536273; stroke-width: 0.8"/>
      </g>
     </g>
     <g id="text_4">
      <text style="font-size: 9px; font-family: 'Heiti SC', sans-serif; text-anchor: middle; fill: #536273" x="148.61929" y="203.36" transform="rotate(-0 148.61929 203.36)">15</text>
     </g>
    </g>
    <g id="xtick_5">
     <g id="line2d_9">
      <path d="M 184.444744 188.62 
L 184.444744 22.488 
" clip-path="url(#pd112a98af5)" style="fill: none; stroke: #b0b0b0; stroke-opacity: 0.2; stroke-width: 0.8; stroke-linecap: square"/>
     </g>
     <g id="line2d_10">
      <g>
       <use xlink:href="#m5f15b3c37b" x="184.444744" y="188.62" style="fill: #536273; stroke: #536273; stroke-width: 0.8"/>
      </g>
     </g>
     <g id="text_5">
      <text style="font-size: 9px; font-family: 'Heiti SC', sans-serif; text-anchor: middle; fill: #536273" x="184.444744" y="203.36" transform="rotate(-0 184.444744 203.36)">20</text>
     </g>
    </g>
    <g id="xtick_6">
     <g id="line2d_11">
      <path d="M 220.270199 188.62 
L 220.270199 22.488 
" clip-path="url(#pd112a98af5)" style="fill: none; stroke: #b0b0b0; stroke-opacity: 0.2; stroke-width: 0.8; stroke-linecap: square"/>
     </g>
     <g id="line2d_12">
      <g>
       <use xlink:href="#m5f15b3c37b" x="220.270199" y="188.62" style="fill: #536273; stroke: #536273; stroke-width: 0.8"/>
      </g>
     </g>
     <g id="text_6">
      <text style="font-size: 9px; font-family: 'Heiti SC', sans-serif; text-anchor: middle; fill: #536273" x="220.270199" y="203.36" transform="rotate(-0 220.270199 203.36)">25</text>
     </g>
    </g>
    <g id="text_7">
     <text style="font-size: 9px; font-family: 'Heiti SC', sans-serif; text-anchor: middle; fill: #263442" x="130.706562" y="216.36" transform="rotate(-0 130.706562 216.36)">载荷 / kg</text>
    </g>
   </g>
   <g id="matplotlib.axis_2">
    <g id="ytick_1">
     <g id="line2d_13">
      <path d="M 32.186563 164.845548 
L 229.226562 164.845548 
" clip-path="url(#pd112a98af5)" style="fill: none; stroke: #b0b0b0; stroke-opacity: 0.2; stroke-width: 0.8; stroke-linecap: square"/>
     </g>
     <g id="line2d_14">
      <defs>
       <path id="m9832b14d1c" d="M 0 0 
L -3.5 0 
" style="stroke: #536273; stroke-width: 0.8"/>
      </defs>
      <g>
       <use xlink:href="#m9832b14d1c" x="32.186563" y="164.845548" style="fill: #536273; stroke: #536273; stroke-width: 0.8"/>
      </g>
     </g>
     <g id="text_8">
      <text style="font-size: 9px; font-family: 'Heiti SC', sans-serif; text-anchor: end; fill: #536273" x="25.186563" y="168.715548" transform="rotate(-0 25.186563 168.715548)">3</text>
     </g>
    </g>
    <g id="ytick_2">
     <g id="line2d_15">
      <path d="M 32.186563 138.087582 
L 229.226562 138.087582 
" clip-path="url(#pd112a98af5)" style="fill: none; stroke: #b0b0b0; stroke-opacity: 0.2; stroke-width: 0.8; stroke-linecap: square"/>
     </g>
     <g id="line2d_16">
      <g>
       <use xlink:href="#m9832b14d1c" x="32.186563" y="138.087582" style="fill: #536273; stroke: #536273; stroke-width: 0.8"/>
      </g>
     </g>
     <g id="text_9">
      <text style="font-size: 9px; font-family: 'Heiti SC', sans-serif; text-anchor: end; fill: #536273" x="25.186563" y="141.957582" transform="rotate(-0 25.186563 141.957582)">4</text>
     </g>
    </g>
    <g id="ytick_3">
     <g id="line2d_17">
      <path d="M 32.186563 111.329615 
L 229.226562 111.329615 
" clip-path="url(#pd112a98af5)" style="fill: none; stroke: #b0b0b0; stroke-opacity: 0.2; stroke-width: 0.8; stroke-linecap: square"/>
     </g>
     <g id="line2d_18">
      <g>
       <use xlink:href="#m9832b14d1c" x="32.186563" y="111.329615" style="fill: #536273; stroke: #536273; stroke-width: 0.8"/>
      </g>
     </g>
     <g id="text_10">
      <text style="font-size: 9px; font-family: 'Heiti SC', sans-serif; text-anchor: end; fill: #536273" x="25.186563" y="115.199615" transform="rotate(-0 25.186563 115.199615)">5</text>
     </g>
    </g>
    <g id="ytick_4">
     <g id="line2d_19">
      <path d="M 32.186563 84.571649 
L 229.226562 84.571649 
" clip-path="url(#pd112a98af5)" style="fill: none; stroke: #b0b0b0; stroke-opacity: 0.2; stroke-width: 0.8; stroke-linecap: square"/>
     </g>
     <g id="line2d_20">
      <g>
       <use xlink:href="#m9832b14d1c" x="32.186563" y="84.571649" style="fill: #536273; stroke: #536273; stroke-width: 0.8"/>
      </g>
     </g>
     <g id="text_11">
      <text style="font-size: 9px; font-family: 'Heiti SC', sans-serif; text-anchor: end; fill: #536273" x="25.186563" y="88.441649" transform="rotate(-0 25.186563 88.441649)">6</text>
     </g>
    </g>
    <g id="ytick_5">
     <g id="line2d_21">
      <path d="M 32.186563 57.813683 
L 229.226562 57.813683 
" clip-path="url(#pd112a98af5)" style="fill: none; stroke: #b0b0b0; stroke-opacity: 0.2; stroke-width: 0.8; stroke-linecap: square"/>
     </g>
     <g id="line2d_22">
      <g>
       <use xlink:href="#m9832b14d1c" x="32.186563" y="57.813683" style="fill: #536273; stroke: #536273; stroke-width: 0.8"/>
      </g>
     </g>
     <g id="text_12">
      <text style="font-size: 9px; font-family: 'Heiti SC', sans-serif; text-anchor: end; fill: #536273" x="25.186563" y="61.683683" transform="rotate(-0 25.186563 61.683683)">7</text>
     </g>
    </g>
    <g id="ytick_6">
     <g id="line2d_23">
      <path d="M 32.186563 31.055716 
L 229.226562 31.055716 
" clip-path="url(#pd112a98af5)" style="fill: none; stroke: #b0b0b0; stroke-opacity: 0.2; stroke-width: 0.8; stroke-linecap: square"/>
     </g>
     <g id="line2d_24">
      <g>
       <use xlink:href="#m9832b14d1c" x="32.186563" y="31.055716" style="fill: #536273; stroke: #536273; stroke-width: 0.8"/>
      </g>
     </g>
     <g id="text_13">
      <text style="font-size: 9px; font-family: 'Heiti SC', sans-serif; text-anchor: end; fill: #536273" x="25.186563" y="34.925716" transform="rotate(-0 25.186563 34.925716)">8</text>
     </g>
    </g>
    <g id="text_14">
     <text style="font-size: 9px; font-family: 'Heiti SC', sans-serif; text-anchor: middle; fill: #263442" x="14.94" y="105.554" transform="rotate(-90 14.94 105.554)">往返飞行能耗 / kWh（服务区 008）</text>
    </g>
   </g>
   <g id="line2d_25">
    <path d="M 41.142926 164.833755 
L 43.41036 164.81481 
L 45.677794 164.786664 
L 47.945228 164.752503 
L 50.212661 164.713451 
L 52.480095 164.67015 
L 54.747529 164.623027 
L 57.014963 164.572389 
L 59.282397 164.518471 
L 61.549831 164.461457 
L 63.817264 164.401496 
L 66.084698 164.33871 
L 68.352132 164.273203 
L 70.619566 164.205061 
L 72.887 164.134357 
L 75.154434 164.061155 
L 77.421867 163.985509 
L 79.689301 163.907466 
L 81.956735 163.827067 
L 84.224169 163.744348 
L 86.491603 163.659338 
L 88.759037 163.572063 
L 91.02647 163.482546 
L 93.293904 163.390806 
L 95.561338 163.296858 
L 97.828772 163.200716 
L 100.096206 163.102391 
L 102.36364 163.00189 
L 104.631073 162.899219 
L 106.898507 162.794384 
L 109.165941 162.687385 
L 111.433375 162.578224 
L 113.700809 162.466899 
L 115.968243 162.353407 
L 118.235676 162.237745 
L 120.50311 162.119906 
L 122.770544 161.999883 
L 125.037978 161.877669 
L 127.305412 161.753253 
L 129.572846 161.626625 
L 131.840279 161.497773 
L 134.107713 161.366682 
L 136.375147 161.23334 
L 138.642581 161.09773 
L 140.910015 160.959837 
L 143.177449 160.819641 
L 145.444882 160.677125 
L 147.712316 160.532268 
L 149.97975 160.38505 
L 152.247184 160.235449 
L 154.514618 160.083442 
L 156.782052 159.929004 
L 159.049485 159.772111 
L 161.316919 159.612736 
L 163.584353 159.450853 
L 165.851787 159.286432 
L 168.119221 159.119444 
L 170.386655 158.949859 
L 172.654088 158.777644 
L 174.921522 158.602769 
L 177.188956 158.425197 
L 179.45639 158.244895 
L 181.723824 158.061825 
L 183.991258 157.875951 
L 186.258691 157.687234 
L 188.526125 157.495634 
L 190.793559 157.301109 
L 193.060993 157.103618 
L 195.328427 156.903115 
L 197.595861 156.699557 
L 199.863294 156.492896 
L 202.130728 156.283084 
L 204.398162 156.070072 
L 206.665596 155.853809 
L 208.93303 155.634243 
L 211.200464 155.411318 
L 213.467897 155.184981 
L 215.735331 154.955172 
L 218.002765 154.721834 
L 220.270199 154.484905 
" clip-path="url(#pd112a98af5)" style="fill: none; stroke: #315e9d; stroke-width: 1.5; stroke-linecap: square"/>
   </g>
   <g id="line2d_26">
    <path d="M 32.186563 148.790768 
L 229.226562 148.790768 
" clip-path="url(#pd112a98af5)" style="fill: none; stroke-dasharray: 3.7,1.6; stroke-dashoffset: 0; stroke: #536273"/>
   </g>
   <g id="line2d_27">
    <path d="M 220.270199 188.62 
L 220.270199 22.488 
" clip-path="url(#pd112a98af5)" style="fill: none; stroke-dasharray: 1.2,1.98; stroke-dashoffset: 0; stroke: #b64a60; stroke-width: 1.2"/>
   </g>
   <g id="patch_3">
    <path d="M 32.186563 188.62 
L 32.186563 22.488 
" style="fill: none; stroke: #8996a3; stroke-width: 0.7; stroke-linejoin: miter; stroke-linecap: square"/>
   </g>
   <g id="patch_4">
    <path d="M 32.186563 188.62 
L 229.226562 188.62 
" style="fill: none; stroke: #8996a3; stroke-width: 0.7; stroke-linejoin: miter; stroke-linecap: square"/>
   </g>
   <g id="text_15">
    <text style="font-weight: 600; font-size: 10.8px; font-family: 'Heiti SC', sans-serif; text-anchor: middle; fill: #263442" x="130.706562" y="16.488" transform="rotate(-0 130.706562 16.488)">A型</text>
   </g>
  </g>
  <g id="axes_2">
   <g id="patch_5">
    <path d="M 242.446562 188.62 
L 439.486562 188.62 
L 439.486562 22.488 
L 242.446562 22.488 
z
" style="fill: #ffffff"/>
   </g>
   <g id="matplotlib.axis_3">
    <g id="xtick_7">
     <g id="line2d_28">
      <path d="M 251.402926 188.62 
L 251.402926 22.488 
" clip-path="url(#p16995b0f64)" style="fill: none; stroke: #b0b0b0; stroke-opacity: 0.2; stroke-width: 0.8; stroke-linecap: square"/>
     </g>
     <g id="line2d_29">
      <g>
       <use xlink:href="#m5f15b3c37b" x="251.402926" y="188.62" style="fill: #536273; stroke: #536273; stroke-width: 0.8"/>
      </g>
     </g>
     <g id="text_16">
      <text style="font-size: 9px; font-family: 'Heiti SC', sans-serif; text-anchor: middle; fill: #536273" x="251.402926" y="203.36" transform="rotate(-0 251.402926 203.36)">0</text>
     </g>
    </g>
    <g id="xtick_8">
     <g id="line2d_30">
      <path d="M 281.257472 188.62 
L 281.257472 22.488 
" clip-path="url(#p16995b0f64)" style="fill: none; stroke: #b0b0b0; stroke-opacity: 0.2; stroke-width: 0.8; stroke-linecap: square"/>
     </g>
     <g id="line2d_31">
      <g>
       <use xlink:href="#m5f15b3c37b" x="281.257472" y="188.62" style="fill: #536273; stroke: #536273; stroke-width: 0.8"/>
      </g>
     </g>
     <g id="text_17">
      <text style="font-size: 9px; font-family: 'Heiti SC', sans-serif; text-anchor: middle; fill: #536273" x="281.257472" y="203.36" transform="rotate(-0 281.257472 203.36)">5</text>
     </g>
    </g>
    <g id="xtick_9">
     <g id="line2d_32">
      <path d="M 311.112017 188.62 
L 311.112017 22.488 
" clip-path="url(#p16995b0f64)" style="fill: none; stroke: #b0b0b0; stroke-opacity: 0.2; stroke-width: 0.8; stroke-linecap: square"/>
     </g>
     <g id="line2d_33">
      <g>
       <use xlink:href="#m5f15b3c37b" x="311.112017" y="188.62" style="fill: #536273; stroke: #536273; stroke-width: 0.8"/>
      </g>
     </g>
     <g id="text_18">
      <text style="font-size: 9px; font-family: 'Heiti SC', sans-serif; text-anchor: middle; fill: #536273" x="311.112017" y="203.36" transform="rotate(-0 311.112017 203.36)">10</text>
     </g>
    </g>
    <g id="xtick_10">
     <g id="line2d_34">
      <path d="M 340.966563 188.62 
L 340.966563 22.488 
" clip-path="url(#p16995b0f64)" style="fill: none; stroke: #b0b0b0; stroke-opacity: 0.2; stroke-width: 0.8; stroke-linecap: square"/>
     </g>
     <g id="line2d_35">
      <g>
       <use xlink:href="#m5f15b3c37b" x="340.966563" y="188.62" style="fill: #536273; stroke: #536273; stroke-width: 0.8"/>
      </g>
     </g>
     <g id="text_19">
      <text style="font-size: 9px; font-family: 'Heiti SC', sans-serif; text-anchor: middle; fill: #536273" x="340.966563" y="203.36" transform="rotate(-0 340.966563 203.36)">15</text>
     </g>
    </g>
    <g id="xtick_11">
     <g id="line2d_36">
      <path d="M 370.821108 188.62 
L 370.821108 22.488 
" clip-path="url(#p16995b0f64)" style="fill: none; stroke: #b0b0b0; stroke-opacity: 0.2; stroke-width: 0.8; stroke-linecap: square"/>
     </g>
     <g id="line2d_37">
      <g>
       <use xlink:href="#m5f15b3c37b" x="370.821108" y="188.62" style="fill: #536273; stroke: #536273; stroke-width: 0.8"/>
      </g>
     </g>
     <g id="text_20">
      <text style="font-size: 9px; font-family: 'Heiti SC', sans-serif; text-anchor: middle; fill: #536273" x="370.821108" y="203.36" transform="rotate(-0 370.821108 203.36)">20</text>
     </g>
    </g>
    <g id="xtick_12">
     <g id="line2d_38">
      <path d="M 400.675653 188.62 
L 400.675653 22.488 
" clip-path="url(#p16995b0f64)" style="fill: none; stroke: #b0b0b0; stroke-opacity: 0.2; stroke-width: 0.8; stroke-linecap: square"/>
     </g>
     <g id="line2d_39">
      <g>
       <use xlink:href="#m5f15b3c37b" x="400.675653" y="188.62" style="fill: #536273; stroke: #536273; stroke-width: 0.8"/>
      </g>
     </g>
     <g id="text_21">
      <text style="font-size: 9px; font-family: 'Heiti SC', sans-serif; text-anchor: middle; fill: #536273" x="400.675653" y="203.36" transform="rotate(-0 400.675653 203.36)">25</text>
     </g>
    </g>
    <g id="xtick_13">
     <g id="line2d_40">
      <path d="M 430.530199 188.62 
L 430.530199 22.488 
" clip-path="url(#p16995b0f64)" style="fill: none; stroke: #b0b0b0; stroke-opacity: 0.2; stroke-width: 0.8; stroke-linecap: square"/>
     </g>
     <g id="line2d_41">
      <g>
       <use xlink:href="#m5f15b3c37b" x="430.530199" y="188.62" style="fill: #536273; stroke: #536273; stroke-width: 0.8"/>
      </g>
     </g>
     <g id="text_22">
      <text style="font-size: 9px; font-family: 'Heiti SC', sans-serif; text-anchor: middle; fill: #536273" x="430.530199" y="203.36" transform="rotate(-0 430.530199 203.36)">30</text>
     </g>
    </g>
    <g id="text_23">
     <text style="font-size: 9px; font-family: 'Heiti SC', sans-serif; text-anchor: middle; fill: #263442" x="340.966563" y="216.36" transform="rotate(-0 340.966563 216.36)">载荷 / kg</text>
    </g>
   </g>
   <g id="matplotlib.axis_4">
    <g id="ytick_7">
     <g id="line2d_42">
      <path d="M 242.446562 164.845548 
L 439.486562 164.845548 
" clip-path="url(#p16995b0f64)" style="fill: none; stroke: #b0b0b0; stroke-opacity: 0.2; stroke-width: 0.8; stroke-linecap: square"/>
     </g>
     <g id="line2d_43">
      <g>
       <use xlink:href="#m9832b14d1c" x="242.446562" y="164.845548" style="fill: #536273; stroke: #536273; stroke-width: 0.8"/>
      </g>
     </g>
    </g>
    <g id="ytick_8">
     <g id="line2d_44">
      <path d="M 242.446562 138.087582 
L 439.486562 138.087582 
" clip-path="url(#p16995b0f64)" style="fill: none; stroke: #b0b0b0; stroke-opacity: 0.2; stroke-width: 0.8; stroke-linecap: square"/>
     </g>
     <g id="line2d_45">
      <g>
       <use xlink:href="#m9832b14d1c" x="242.446562" y="138.087582" style="fill: #536273; stroke: #536273; stroke-width: 0.8"/>
      </g>
     </g>
    </g>
    <g id="ytick_9">
     <g id="line2d_46">
      <path d="M 242.446562 111.329615 
L 439.486562 111.329615 
" clip-path="url(#p16995b0f64)" style="fill: none; stroke: #b0b0b0; stroke-opacity: 0.2; stroke-width: 0.8; stroke-linecap: square"/>
     </g>
     <g id="line2d_47">
      <g>
       <use xlink:href="#m9832b14d1c" x="242.446562" y="111.329615" style="fill: #536273; stroke: #536273; stroke-width: 0.8"/>
      </g>
     </g>
    </g>
    <g id="ytick_10">
     <g id="line2d_48">
      <path d="M 242.446562 84.571649 
L 439.486562 84.571649 
" clip-path="url(#p16995b0f64)" style="fill: none; stroke: #b0b0b0; stroke-opacity: 0.2; stroke-width: 0.8; stroke-linecap: square"/>
     </g>
     <g id="line2d_49">
      <g>
       <use xlink:href="#m9832b14d1c" x="242.446562" y="84.571649" style="fill: #536273; stroke: #536273; stroke-width: 0.8"/>
      </g>
     </g>
    </g>
    <g id="ytick_11">
     <g id="line2d_50">
      <path d="M 242.446562 57.813683 
L 439.486562 57.813683 
" clip-path="url(#p16995b0f64)" style="fill: none; stroke: #b0b0b0; stroke-opacity: 0.2; stroke-width: 0.8; stroke-linecap: square"/>
     </g>
     <g id="line2d_51">
      <g>
       <use xlink:href="#m9832b14d1c" x="242.446562" y="57.813683" style="fill: #536273; stroke: #536273; stroke-width: 0.8"/>
      </g>
     </g>
    </g>
    <g id="ytick_12">
     <g id="line2d_52">
      <path d="M 242.446562 31.055716 
L 439.486562 31.055716 
" clip-path="url(#p16995b0f64)" style="fill: none; stroke: #b0b0b0; stroke-opacity: 0.2; stroke-width: 0.8; stroke-linecap: square"/>
     </g>
     <g id="line2d_53">
      <g>
       <use xlink:href="#m9832b14d1c" x="242.446562" y="31.055716" style="fill: #536273; stroke: #536273; stroke-width: 0.8"/>
      </g>
     </g>
    </g>
   </g>
   <g id="line2d_54">
    <path d="M 251.402926 181.068545 
L 253.67036 181.040254 
L 255.937794 180.996279 
L 258.205228 180.941999 
L 260.472661 180.87929 
L 262.740095 180.809204 
L 265.007529 180.732429 
L 267.274963 180.649448 
L 269.542397 180.560619 
L 271.809831 180.466213 
L 274.077264 180.366443 
L 276.344698 180.261473 
L 278.612132 180.151432 
L 280.879566 180.036422 
L 283.147 179.916521 
L 285.414434 179.791787 
L 287.681867 179.662264 
L 289.949301 179.527978 
L 292.216735 179.388946 
L 294.484169 179.245172 
L 296.751603 179.09665 
L 299.019037 178.943365 
L 301.28647 178.785294 
L 303.553904 178.622405 
L 305.821338 178.454659 
L 308.088772 178.282009 
L 310.356206 178.104403 
L 312.62364 177.921781 
L 314.891073 177.734075 
L 317.158507 177.541214 
L 319.425941 177.343116 
L 321.693375 177.139697 
L 323.960809 176.930863 
L 326.228243 176.716517 
L 328.495676 176.496553 
L 330.76311 176.270858 
L 333.030544 176.039314 
L 335.297978 175.801795 
L 337.565412 175.558168 
L 339.832846 175.308292 
L 342.100279 175.052021 
L 344.367713 174.789197 
L 346.635147 174.519658 
L 348.902581 174.243231 
L 351.170015 173.959734 
L 353.437449 173.668978 
L 355.704882 173.370763 
L 357.972316 173.064878 
L 360.23975 172.751103 
L 362.507184 172.429207 
L 364.774618 172.098947 
L 367.042052 171.760067 
L 369.309485 171.4123 
L 371.576919 171.055364 
L 373.844353 170.688963 
L 376.111787 170.312786 
L 378.379221 169.926507 
L 380.646655 169.529782 
L 382.914088 169.12225 
L 385.181522 168.70353 
L 387.448956 168.273223 
L 389.71639 167.830906 
L 391.983824 167.376135 
L 394.251258 166.908442 
L 396.518691 166.427333 
L 398.786125 165.932286 
L 401.053559 165.422751 
L 403.320993 164.898144 
L 405.588427 164.357852 
L 407.855861 163.801223 
L 410.123294 163.227566 
L 412.390728 162.636152 
L 414.658162 162.026205 
L 416.925596 161.396902 
L 419.19303 160.747371 
L 421.460464 160.076682 
L 423.727897 159.383846 
L 425.995331 158.667812 
L 428.262765 157.927457 
L 430.530199 157.161582 
" clip-path="url(#p16995b0f64)" style="fill: none; stroke: #ce853d; stroke-width: 1.5; stroke-linecap: square"/>
   </g>
   <g id="line2d_55">
    <path d="M 242.446562 159.493955 
L 439.486562 159.493955 
" clip-path="url(#p16995b0f64)" style="fill: none; stroke-dasharray: 3.7,1.6; stroke-dashoffset: 0; stroke: #536273"/>
   </g>
   <g id="line2d_56">
    <path d="M 423.372474 188.62 
L 423.372474 22.488 
" clip-path="url(#p16995b0f64)" style="fill: none; stroke-dasharray: 1.2,1.98; stroke-dashoffset: 0; stroke: #b64a60; stroke-width: 1.2"/>
   </g>
   <g id="patch_6">
    <path d="M 242.446562 188.62 
L 242.446562 22.488 
" style="fill: none; stroke: #8996a3; stroke-width: 0.7; stroke-linejoin: miter; stroke-linecap: square"/>
   </g>
   <g id="patch_7">
    <path d="M 242.446562 188.62 
L 439.486562 188.62 
" style="fill: none; stroke: #8996a3; stroke-width: 0.7; stroke-linejoin: miter; stroke-linecap: square"/>
   </g>
   <g id="text_24">
    <text style="font-weight: 600; font-size: 10.8px; font-family: 'Heiti SC', sans-serif; text-anchor: middle; fill: #263442" x="340.966563" y="16.488" transform="rotate(-0 340.966563 16.488)">B型</text>
   </g>
  </g>
  <g id="axes_3">
   <g id="patch_8">
    <path d="M 452.706563 188.62 
L 649.746562 188.62 
L 649.746562 22.488 
L 452.706563 22.488 
z
" style="fill: #ffffff"/>
   </g>
   <g id="matplotlib.axis_5">
    <g id="xtick_14">
     <g id="line2d_57">
      <path d="M 461.662926 188.62 
L 461.662926 22.488 
" clip-path="url(#p0ea2d933b3)" style="fill: none; stroke: #b0b0b0; stroke-opacity: 0.2; stroke-width: 0.8; stroke-linecap: square"/>
     </g>
     <g id="line2d_58">
      <g>
       <use xlink:href="#m5f15b3c37b" x="461.662926" y="188.62" style="fill: #536273; stroke: #536273; stroke-width: 0.8"/>
      </g>
     </g>
     <g id="text_25">
      <text style="font-size: 9px; font-family: 'Heiti SC', sans-serif; text-anchor: middle; fill: #536273" x="461.662926" y="203.36" transform="rotate(-0 461.662926 203.36)">0</text>
     </g>
    </g>
    <g id="xtick_15">
     <g id="line2d_59">
      <path d="M 506.444744 188.62 
L 506.444744 22.488 
" clip-path="url(#p0ea2d933b3)" style="fill: none; stroke: #b0b0b0; stroke-opacity: 0.2; stroke-width: 0.8; stroke-linecap: square"/>
     </g>
     <g id="line2d_60">
      <g>
       <use xlink:href="#m5f15b3c37b" x="506.444744" y="188.62" style="fill: #536273; stroke: #536273; stroke-width: 0.8"/>
      </g>
     </g>
     <g id="text_26">
      <text style="font-size: 9px; font-family: 'Heiti SC', sans-serif; text-anchor: middle; fill: #536273" x="506.444744" y="203.36" transform="rotate(-0 506.444744 203.36)">20</text>
     </g>
    </g>
    <g id="xtick_16">
     <g id="line2d_61">
      <path d="M 551.226562 188.62 
L 551.226562 22.488 
" clip-path="url(#p0ea2d933b3)" style="fill: none; stroke: #b0b0b0; stroke-opacity: 0.2; stroke-width: 0.8; stroke-linecap: square"/>
     </g>
     <g id="line2d_62">
      <g>
       <use xlink:href="#m5f15b3c37b" x="551.226562" y="188.62" style="fill: #536273; stroke: #536273; stroke-width: 0.8"/>
      </g>
     </g>
     <g id="text_27">
      <text style="font-size: 9px; font-family: 'Heiti SC', sans-serif; text-anchor: middle; fill: #536273" x="551.226562" y="203.36" transform="rotate(-0 551.226562 203.36)">40</text>
     </g>
    </g>
    <g id="xtick_17">
     <g id="line2d_63">
      <path d="M 596.008381 188.62 
L 596.008381 22.488 
" clip-path="url(#p0ea2d933b3)" style="fill: none; stroke: #b0b0b0; stroke-opacity: 0.2; stroke-width: 0.8; stroke-linecap: square"/>
     </g>
     <g id="line2d_64">
      <g>
       <use xlink:href="#m5f15b3c37b" x="596.008381" y="188.62" style="fill: #536273; stroke: #536273; stroke-width: 0.8"/>
      </g>
     </g>
     <g id="text_28">
      <text style="font-size: 9px; font-family: 'Heiti SC', sans-serif; text-anchor: middle; fill: #536273" x="596.008381" y="203.36" transform="rotate(-0 596.008381 203.36)">60</text>
     </g>
    </g>
    <g id="xtick_18">
     <g id="line2d_65">
      <path d="M 640.790199 188.62 
L 640.790199 22.488 
" clip-path="url(#p0ea2d933b3)" style="fill: none; stroke: #b0b0b0; stroke-opacity: 0.2; stroke-width: 0.8; stroke-linecap: square"/>
     </g>
     <g id="line2d_66">
      <g>
       <use xlink:href="#m5f15b3c37b" x="640.790199" y="188.62" style="fill: #536273; stroke: #536273; stroke-width: 0.8"/>
      </g>
     </g>
     <g id="text_29">
      <text style="font-size: 9px; font-family: 'Heiti SC', sans-serif; text-anchor: middle; fill: #536273" x="640.790199" y="203.36" transform="rotate(-0 640.790199 203.36)">80</text>
     </g>
    </g>
    <g id="text_30">
     <text style="font-size: 9px; font-family: 'Heiti SC', sans-serif; text-anchor: middle; fill: #263442" x="551.226562" y="216.36" transform="rotate(-0 551.226562 216.36)">载荷 / kg</text>
    </g>
   </g>
   <g id="matplotlib.axis_6">
    <g id="ytick_13">
     <g id="line2d_67">
      <path d="M 452.706563 164.845548 
L 649.746562 164.845548 
" clip-path="url(#p0ea2d933b3)" style="fill: none; stroke: #b0b0b0; stroke-opacity: 0.2; stroke-width: 0.8; stroke-linecap: square"/>
     </g>
     <g id="line2d_68">
      <g>
       <use xlink:href="#m9832b14d1c" x="452.706563" y="164.845548" style="fill: #536273; stroke: #536273; stroke-width: 0.8"/>
      </g>
     </g>
    </g>
    <g id="ytick_14">
     <g id="line2d_69">
      <path d="M 452.706563 138.087582 
L 649.746562 138.087582 
" clip-path="url(#p0ea2d933b3)" style="fill: none; stroke: #b0b0b0; stroke-opacity: 0.2; stroke-width: 0.8; stroke-linecap: square"/>
     </g>
     <g id="line2d_70">
      <g>
       <use xlink:href="#m9832b14d1c" x="452.706563" y="138.087582" style="fill: #536273; stroke: #536273; stroke-width: 0.8"/>
      </g>
     </g>
    </g>
    <g id="ytick_15">
     <g id="line2d_71">
      <path d="M 452.706563 111.329615 
L 649.746562 111.329615 
" clip-path="url(#p0ea2d933b3)" style="fill: none; stroke: #b0b0b0; stroke-opacity: 0.2; stroke-width: 0.8; stroke-linecap: square"/>
     </g>
     <g id="line2d_72">
      <g>
       <use xlink:href="#m9832b14d1c" x="452.706563" y="111.329615" style="fill: #536273; stroke: #536273; stroke-width: 0.8"/>
      </g>
     </g>
    </g>
    <g id="ytick_16">
     <g id="line2d_73">
      <path d="M 452.706563 84.571649 
L 649.746562 84.571649 
" clip-path="url(#p0ea2d933b3)" style="fill: none; stroke: #b0b0b0; stroke-opacity: 0.2; stroke-width: 0.8; stroke-linecap: square"/>
     </g>
     <g id="line2d_74">
      <g>
       <use xlink:href="#m9832b14d1c" x="452.706563" y="84.571649" style="fill: #536273; stroke: #536273; stroke-width: 0.8"/>
      </g>
     </g>
    </g>
    <g id="ytick_17">
     <g id="line2d_75">
      <path d="M 452.706563 57.813683 
L 649.746562 57.813683 
" clip-path="url(#p0ea2d933b3)" style="fill: none; stroke: #b0b0b0; stroke-opacity: 0.2; stroke-width: 0.8; stroke-linecap: square"/>
     </g>
     <g id="line2d_76">
      <g>
       <use xlink:href="#m9832b14d1c" x="452.706563" y="57.813683" style="fill: #536273; stroke: #536273; stroke-width: 0.8"/>
      </g>
     </g>
    </g>
    <g id="ytick_18">
     <g id="line2d_77">
      <path d="M 452.706563 31.055716 
L 649.746562 31.055716 
" clip-path="url(#p0ea2d933b3)" style="fill: none; stroke: #b0b0b0; stroke-opacity: 0.2; stroke-width: 0.8; stroke-linecap: square"/>
     </g>
     <g id="line2d_78">
      <g>
       <use xlink:href="#m9832b14d1c" x="452.706563" y="31.055716" style="fill: #536273; stroke: #536273; stroke-width: 0.8"/>
      </g>
     </g>
    </g>
   </g>
   <g id="line2d_79">
    <path d="M 461.662926 109.628609 
L 463.93036 109.552414 
L 466.197794 109.433727 
L 468.465228 109.287059 
L 470.732661 109.117433 
L 473.000095 108.927648 
L 475.267529 108.719511 
L 477.534963 108.494277 
L 479.802397 108.252859 
L 482.069831 107.995935 
L 484.337264 107.724017 
L 486.604698 107.43749 
L 488.872132 107.136639 
L 491.139566 106.821672 
L 493.407 106.49273 
L 495.674434 106.1499 
L 497.941867 105.793218 
L 500.209301 105.422681 
L 502.476735 105.038246 
L 504.744169 104.639838 
L 507.011603 104.227348 
L 509.279037 103.800638 
L 511.54647 103.359541 
L 513.813904 102.903866 
L 516.081338 102.433391 
L 518.348772 101.947871 
L 520.616206 101.447036 
L 522.88364 100.930588 
L 525.151073 100.398207 
L 527.418507 99.849544 
L 529.685941 99.284226 
L 531.953375 98.701852 
L 534.220809 98.101994 
L 536.488243 97.484196 
L 538.755676 96.847971 
L 541.02311 96.192804 
L 543.290544 95.518146 
L 545.557978 94.823416 
L 547.825412 94.108 
L 550.092846 93.371243 
L 552.360279 92.612456 
L 554.627713 91.830907 
L 556.895147 91.025822 
L 559.162581 90.196382 
L 561.430015 89.341721 
L 563.697449 88.460918 
L 565.964882 87.553004 
L 568.232316 86.616947 
L 570.49975 85.651657 
L 572.767184 84.655976 
L 575.034618 83.628678 
L 577.302052 82.568461 
L 579.569485 81.473941 
L 581.836919 80.34365 
L 584.104353 79.176026 
L 586.371787 77.969408 
L 588.639221 76.722025 
L 590.906655 75.431993 
L 593.174088 74.0973 
L 595.441522 72.7158 
L 597.708956 71.285198 
L 599.97639 69.803042 
L 602.243824 68.266705 
L 604.511258 66.673371 
L 606.778691 65.02002 
L 609.046125 63.303405 
L 611.313559 61.520037 
L 613.580993 59.666156 
L 615.848427 57.737708 
L 618.115861 55.730315 
L 620.383294 53.639241 
L 622.650728 51.45936 
L 624.918162 49.185107 
L 627.185596 46.810439 
L 629.45303 44.328774 
L 631.720464 41.73294 
L 633.987897 39.015097 
L 636.255331 36.166665 
L 638.522765 33.178233 
L 640.790199 30.039455 
" clip-path="url(#p0ea2d933b3)" style="fill: none; stroke: #b64a60; stroke-width: 1.5; stroke-linecap: square"/>
   </g>
   <g id="line2d_80">
    <path d="M 452.706563 73.868462 
L 649.746562 73.868462 
" clip-path="url(#p0ea2d933b3)" style="fill: none; stroke-dasharray: 3.7,1.6; stroke-dashoffset: 0; stroke: #536273"/>
   </g>
   <g id="line2d_81">
    <path d="M 593.555145 188.62 
L 593.555145 22.488 
" clip-path="url(#p0ea2d933b3)" style="fill: none; stroke-dasharray: 1.2,1.98; stroke-dashoffset: 0; stroke: #b64a60; stroke-width: 1.2"/>
   </g>
   <g id="patch_9">
    <path d="M 452.706563 188.62 
L 452.706563 22.488 
" style="fill: none; stroke: #8996a3; stroke-width: 0.7; stroke-linejoin: miter; stroke-linecap: square"/>
   </g>
   <g id="patch_10">
    <path d="M 452.706563 188.62 
L 649.746562 188.62 
" style="fill: none; stroke: #8996a3; stroke-width: 0.7; stroke-linejoin: miter; stroke-linecap: square"/>
   </g>
   <g id="text_31">
    <text style="font-weight: 600; font-size: 10.8px; font-family: 'Heiti SC', sans-serif; text-anchor: middle; fill: #263442" x="551.226562" y="16.488" transform="rotate(-0 551.226562 16.488)">C型</text>
   </g>
   <g id="legend_1">
    <g id="line2d_82">
     <path d="M 459.006563 32.456438 
L 466.006563 32.456438 
L 473.006563 32.456438 
" style="fill: none; stroke-dasharray: 3.7,1.6; stroke-dashoffset: 0; stroke: #536273"/>
    </g>
    <g id="text_32">
     <text style="font-size: 7px; font-family: 'Heiti SC', sans-serif; text-anchor: start; fill: #263442" x="478.606563" y="34.906438" transform="rotate(-0 478.606563 34.906438)">20%返航储备下的可用能量</text>
    </g>
    <g id="line2d_83">
     <path d="M 459.006563 42.956438 
L 466.006563 42.956438 
L 473.006563 42.956438 
" style="fill: none; stroke-dasharray: 1.2,1.98; stroke-dashoffset: 0; stroke: #b64a60; stroke-width: 1.2"/>
    </g>
    <g id="text_33">
     <text style="font-size: 7px; font-family: 'Heiti SC', sans-serif; text-anchor: start; fill: #263442" x="478.606563" y="45.406438" transform="rotate(-0 478.606563 45.406438)">最大安全载荷 58.9 kg</text>
    </g>
   </g>
  </g>
 </g>
 <defs>
  <clipPath id="pd112a98af5">
   <rect x="32.186563" y="22.488" width="197.04" height="166.132"/>
  </clipPath>
  <clipPath id="p16995b0f64">
   <rect x="242.446562" y="22.488" width="197.04" height="166.132"/>
  </clipPath>
  <clipPath id="p0ea2d933b3">
   <rect x="452.706563" y="22.488" width="197.04" height="166.132"/>
  </clipPath>
 </defs>
</svg>
