<?xml version="1.0" encoding="utf-8" standalone="no"?>
<!DOCTYPE svg PUBLIC "-//W3C//DTD SVG 1.1//EN"
  "http://www.w3.org/Graphics/SVG/1.1/DTD/svg11.dtd">
<svg xmlns:xlink="http://www.w3.org/1999/xlink" width="657pt" height="225.355781pt" viewBox="0 0 657 225.355781" xmlns="http://www.w3.org/2000/svg" version="1.1">
 <metadata>
  <rdf:RDF xmlns:dc="http://purl.org/dc/elements/1.1/" xmlns:cc="http://creativecommons.org/ns#" xmlns:rdf="http://www.w3.org/1999/02/22-rdf-syntax-ns#">
   <cc:Work>
    <dc:type rdf:resource="http://purl.org/dc/dcmitype/StillImage"/>
    <dc:date>2026-09-25T21:50:52.510545</dc:date>
    <dc:format>image/svg+xml</dc:format>
    <dc:creator>
     <cc:Agent>
      <dc:title>Matplotlib v3.11.2, https://matplotlib.org/</dc:title>
     </cc:Agent>
    </dc:creator>
   </cc:Work>
  </rdf:RDF>
 </metadata>
 <defs>
  <style type="text/css">*{stroke-linejoin: round; stroke-linecap: butt}</style>
 </defs>
 <g id="figure_1">
  <g id="patch_1">
   <path d="M 0 225.355781 
L 657 225.355781 
L 657 0 
L 0 0 
z
" style="fill: #ffffff"/>
  </g>
  <g id="axes_1">
   <g id="patch_2">
    <path d="M 32.6 188.5075 
L 229.52 188.5075 
L 229.52 22.488 
L 32.6 22.488 
z
" style="fill: #ffffff"/>
   </g>
   <g id="matplotlib.axis_1">
    <g id="xtick_1">
     <g id="line2d_1">
      <path d="M 41.550909 188.5075 
L 41.550909 22.488 
" clip-path="url(#pa3eb149663)" style="fill: none; stroke: #b0b0b0; stroke-opacity: 0.2; stroke-width: 0.8; stroke-linecap: square"/>
     </g>
     <g id="line2d_2">
      <defs>
       <path id="me55eac2558" d="M 0 0 
L 0 3.5 
" style="stroke: #536273; stroke-width: 0.8"/>
      </defs>
      <g>
       <use xlink:href="#me55eac2558" x="41.550909" y="188.5075" style="fill: #536273; stroke: #536273; stroke-width: 0.8"/>
      </g>
     </g>
     <g id="text_1">
      <text style="font-size: 9px; font-family: 'PingFang SC', 'Arial', 'DejaVu Sans', sans-serif; text-anchor: middle; fill: #536273" x="41.550909" y="203.2475" transform="rotate(-0 41.550909 203.2475)">0</text>
     </g>
    </g>
    <g id="xtick_2">
     <g id="line2d_3">
      <path d="M 77.354545 188.5075 
L 77.354545 22.488 
" clip-path="url(#pa3eb149663)" style="fill: none; stroke: #b0b0b0; stroke-opacity: 0.2; stroke-width: 0.8; stroke-linecap: square"/>
     </g>
     <g id="line2d_4">
      <g>
       <use xlink:href="#me55eac2558" x="77.354545" y="188.5075" style="fill: #536273; stroke: #536273; stroke-width: 0.8"/>
      </g>
     </g>
     <g id="text_2">
      <text style="font-size: 9px; font-family: 'PingFang SC', 'Arial', 'DejaVu Sans', sans-serif; text-anchor: middle; fill: #536273" x="77.354545" y="203.2475" transform="rotate(-0 77.354545 203.2475)">5</text>
     </g>
    </g>
    <g id="xtick_3">
     <g id="line2d_5">
      <path d="M 113.158182 188.5075 
L 113.158182 22.488 
" clip-path="url(#pa3eb149663)" style="fill: none; stroke: #b0b0b0; stroke-opacity: 0.2; stroke-width: 0.8; stroke-linecap: square"/>
     </g>
     <g id="line2d_6">
      <g>
       <use xlink:href="#me55eac2558" x="113.158182" y="188.5075" style="fill: #536273; stroke: #536273; stroke-width: 0.8"/>
      </g>
     </g>
     <g id="text_3">
      <text style="font-size: 9px; font-family: 'PingFang SC', 'Arial', 'DejaVu Sans', sans-serif; text-anchor: middle; fill: #536273" x="113.158182" y="203.2475" transform="rotate(-0 113.158182 203.2475)">10</text>
     </g>
    </g>
    <g id="xtick_4">
     <g id="line2d_7">
      <path d="M 148.961818 188.5075 
L 148.961818 22.488 
" clip-path="url(#pa3eb149663)" style="fill: none; stroke: #b0b0b0; stroke-opacity: 0.2; stroke-width: 0.8; stroke-linecap: square"/>
     </g>
     <g id="line2d_8">
      <g>
       <use xlink:href="#me55eac2558" x="148.961818" y="188.5075" style="fill: #536273; stroke: #536273; stroke-width: 0.8"/>
      </g>
     </g>
     <g id="text_4">
      <text style="font-size: 9px; font-family: 'PingFang SC', 'Arial', 'DejaVu Sans', sans-serif; text-anchor: middle; fill: #536273" x="148.961818" y="203.2475" transform="rotate(-0 148.961818 203.2475)">15</text>
     </g>
    </g>
    <g id="xtick_5">
     <g id="line2d_9">
      <path d="M 184.765455 188.5075 
L 184.765455 22.488 
" clip-path="url(#pa3eb149663)" style="fill: none; stroke: #b0b0b0; stroke-opacity: 0.2; stroke-width: 0.8; stroke-linecap: square"/>
     </g>
     <g id="line2d_10">
      <g>
       <use xlink:href="#me55eac2558" x="184.765455" y="188.5075" style="fill: #536273; stroke: #536273; stroke-width: 0.8"/>
      </g>
     </g>
     <g id="text_5">
      <text style="font-size: 9px; font-family: 'PingFang SC', 'Arial', 'DejaVu Sans', sans-serif; text-anchor: middle; fill: #536273" x="184.765455" y="203.2475" transform="rotate(-0 184.765455 203.2475)">20</text>
     </g>
    </g>
    <g id="xtick_6">
     <g id="line2d_11">
      <path d="M 220.569091 188.5075 
L 220.569091 22.488 
" clip-path="url(#pa3eb149663)" style="fill: none; stroke: #b0b0b0; stroke-opacity: 0.2; stroke-width: 0.8; stroke-linecap: square"/>
     </g>
     <g id="line2d_12">
      <g>
       <use xlink:href="#me55eac2558" x="220.569091" y="188.5075" style="fill: #536273; stroke: #536273; stroke-width: 0.8"/>
      </g>
     </g>
     <g id="text_6">
      <text style="font-size: 9px; font-family: 'PingFang SC', 'Arial', 'DejaVu Sans', sans-serif; text-anchor: middle; fill: #536273" x="220.569091" y="203.2475" transform="rotate(-0 220.569091 203.2475)">25</text>
     </g>
    </g>
    <g id="text_7">
     <text style="font-size: 9px; font-family: 'PingFang SC', 'Arial', 'DejaVu Sans', sans-serif; text-anchor: middle; fill: #263442" x="131.06" y="216.2475" transform="rotate(-0 131.06 216.2475)">载荷 / kg</text>
    </g>
   </g>
   <g id="matplotlib.axis_2">
    <g id="ytick_1">
     <g id="line2d_13">
      <path d="M 32.6 164.749148 
L 229.52 164.749148 
" clip-path="url(#pa3eb149663)" style="fill: none; stroke: #b0b0b0; stroke-opacity: 0.2; stroke-width: 0.8; stroke-linecap: square"/>
     </g>
     <g id="line2d_14">
      <defs>
       <path id="mb1db19d2f2" d="M 0 0 
L -3.5 0 
" style="stroke: #536273; stroke-width: 0.8"/>
      </defs>
      <g>
       <use xlink:href="#mb1db19d2f2" x="32.6" y="164.749148" style="fill: #536273; stroke: #536273; stroke-width: 0.8"/>
      </g>
     </g>
     <g id="text_8">
      <text style="font-size: 9px; font-family: 'PingFang SC', 'Arial', 'DejaVu Sans', sans-serif; text-anchor: end; fill: #536273" x="25.6" y="168.619148" transform="rotate(-0 25.6 168.619148)">3</text>
     </g>
    </g>
    <g id="ytick_2">
     <g id="line2d_15">
      <path d="M 32.6 138.009301 
L 229.52 138.009301 
" clip-path="url(#pa3eb149663)" style="fill: none; stroke: #b0b0b0; stroke-opacity: 0.2; stroke-width: 0.8; stroke-linecap: square"/>
     </g>
     <g id="line2d_16">
      <g>
       <use xlink:href="#mb1db19d2f2" x="32.6" y="138.009301" style="fill: #536273; stroke: #536273; stroke-width: 0.8"/>
      </g>
     </g>
     <g id="text_9">
      <text style="font-size: 9px; font-family: 'PingFang SC', 'Arial', 'DejaVu Sans', sans-serif; text-anchor: end; fill: #536273" x="25.6" y="141.879301" transform="rotate(-0 25.6 141.879301)">4</text>
     </g>
    </g>
    <g id="ytick_3">
     <g id="line2d_17">
      <path d="M 32.6 111.269454 
L 229.52 111.269454 
" clip-path="url(#pa3eb149663)" style="fill: none; stroke: #b0b0b0; stroke-opacity: 0.2; stroke-width: 0.8; stroke-linecap: square"/>
     </g>
     <g id="line2d_18">
      <g>
       <use xlink:href="#mb1db19d2f2" x="32.6" y="111.269454" style="fill: #536273; stroke: #536273; stroke-width: 0.8"/>
      </g>
     </g>
     <g id="text_10">
      <text style="font-size: 9px; font-family: 'PingFang SC', 'Arial', 'DejaVu Sans', sans-serif; text-anchor: end; fill: #536273" x="25.6" y="115.139454" transform="rotate(-0 25.6 115.139454)">5</text>
     </g>
    </g>
    <g id="ytick_4">
     <g id="line2d_19">
      <path d="M 32.6 84.529608 
L 229.52 84.529608 
" clip-path="url(#pa3eb149663)" style="fill: none; stroke: #b0b0b0; stroke-opacity: 0.2; stroke-width: 0.8; stroke-linecap: square"/>
     </g>
     <g id="line2d_20">
      <g>
       <use xlink:href="#mb1db19d2f2" x="32.6" y="84.529608" style="fill: #536273; stroke: #536273; stroke-width: 0.8"/>
      </g>
     </g>
     <g id="text_11">
      <text style="font-size: 9px; font-family: 'PingFang SC', 'Arial', 'DejaVu Sans', sans-serif; text-anchor: end; fill: #536273" x="25.6" y="88.399608" transform="rotate(-0 25.6 88.399608)">6</text>
     </g>
    </g>
    <g id="ytick_5">
     <g id="line2d_21">
      <path d="M 32.6 57.789761 
L 229.52 57.789761 
" clip-path="url(#pa3eb149663)" style="fill: none; stroke: #b0b0b0; stroke-opacity: 0.2; stroke-width: 0.8; stroke-linecap: square"/>
     </g>
     <g id="line2d_22">
      <g>
       <use xlink:href="#mb1db19d2f2" x="32.6" y="57.789761" style="fill: #536273; stroke: #536273; stroke-width: 0.8"/>
      </g>
     </g>
     <g id="text_12">
      <text style="font-size: 9px; font-family: 'PingFang SC', 'Arial', 'DejaVu Sans', sans-serif; text-anchor: end; fill: #536273" x="25.6" y="61.659761" transform="rotate(-0 25.6 61.659761)">7</text>
     </g>
    </g>
    <g id="ytick_6">
     <g id="line2d_23">
      <path d="M 32.6 31.049914 
L 229.52 31.049914 
" clip-path="url(#pa3eb149663)" style="fill: none; stroke: #b0b0b0; stroke-opacity: 0.2; stroke-width: 0.8; stroke-linecap: square"/>
     </g>
     <g id="line2d_24">
      <g>
       <use xlink:href="#mb1db19d2f2" x="32.6" y="31.049914" style="fill: #536273; stroke: #536273; stroke-width: 0.8"/>
      </g>
     </g>
     <g id="text_13">
      <text style="font-size: 9px; font-family: 'PingFang SC', 'Arial', 'DejaVu Sans', sans-serif; text-anchor: end; fill: #536273" x="25.6" y="34.919914" transform="rotate(-0 25.6 34.919914)">8</text>
     </g>
    </g>
    <g id="text_14">
     <text style="font-size: 9px; font-family: 'PingFang SC', 'Arial', 'DejaVu Sans', sans-serif; text-anchor: middle; fill: #263442" x="14.94" y="105.49775" transform="rotate(-90 14.94 105.49775)">往返飞行能耗 / kWh（服务区 008）</text>
    </g>
   </g>
   <g id="line2d_25">
    <path d="M 41.550909 164.737362 
L 43.816962 164.71843 
L 46.083015 164.690303 
L 48.349068 164.656165 
L 50.615121 164.61714 
L 52.881174 164.573868 
L 55.147227 164.526777 
L 57.41328 164.476173 
L 59.679333 164.422292 
L 61.945386 164.365316 
L 64.211438 164.305396 
L 66.477491 164.242653 
L 68.743544 164.17719 
L 71.009597 164.109094 
L 73.27565 164.038438 
L 75.541703 163.965285 
L 77.807756 163.889691 
L 80.073809 163.811701 
L 82.339862 163.731357 
L 84.605915 163.648693 
L 86.871968 163.56374 
L 89.138021 163.476525 
L 91.404074 163.387068 
L 93.670127 163.29539 
L 95.93618 163.201506 
L 98.202232 163.105429 
L 100.468285 163.00717 
L 102.734338 162.906737 
L 105.000391 162.804137 
L 107.266444 162.699372 
L 109.532497 162.592446 
L 111.79855 162.483358 
L 114.064603 162.372109 
L 116.330656 162.258694 
L 118.596709 162.14311 
L 120.862762 162.025351 
L 123.128815 161.90541 
L 125.394868 161.783278 
L 127.660921 161.658947 
L 129.926974 161.532404 
L 132.193026 161.403639 
L 134.459079 161.272638 
L 136.725132 161.139386 
L 138.991185 161.003868 
L 141.257238 160.866067 
L 143.523291 160.725967 
L 145.789344 160.583547 
L 148.055397 160.438788 
L 150.32145 160.29167 
L 152.587503 160.142171 
L 154.853556 159.990266 
L 157.119609 159.835933 
L 159.385662 159.679146 
L 161.651715 159.519879 
L 163.917768 159.358105 
L 166.18382 159.193795 
L 168.449873 159.026921 
L 170.715926 158.85745 
L 172.981979 158.685353 
L 175.248032 158.510595 
L 177.514085 158.333144 
L 179.780138 158.152964 
L 182.046191 157.970019 
L 184.312244 157.78427 
L 186.578297 157.595681 
L 188.84435 157.404211 
L 191.110403 157.209818 
L 193.376456 157.01246 
L 195.642509 156.812093 
L 197.908562 156.608672 
L 200.174614 156.402151 
L 202.440667 156.192482 
L 204.70672 155.979614 
L 206.972773 155.763498 
L 209.238826 155.54408 
L 211.504879 155.321306 
L 213.770932 155.095122 
L 216.036985 154.865469 
L 218.303038 154.632289 
L 220.569091 154.39552 
" clip-path="url(#pa3eb149663)" style="fill: none; stroke: #315e9d; stroke-width: 1.5; stroke-linecap: square"/>
   </g>
   <g id="line2d_26">
    <path d="M 32.6 148.70524 
L 229.52 148.70524 
" clip-path="url(#pa3eb149663)" style="fill: none; stroke-dasharray: 3.7,1.6; stroke-dashoffset: 0; stroke: #536273"/>
   </g>
   <g id="line2d_27">
    <path d="M 220.569091 188.5075 
L 220.569091 22.488 
" clip-path="url(#pa3eb149663)" style="fill: none; stroke-dasharray: 1.2,1.98; stroke-dashoffset: 0; stroke: #b64a60; stroke-width: 1.2"/>
   </g>
   <g id="patch_3">
    <path d="M 32.6 188.5075 
L 32.6 22.488 
" style="fill: none; stroke: #8996a3; stroke-width: 0.7; stroke-linejoin: miter; stroke-linecap: square"/>
   </g>
   <g id="patch_4">
    <path d="M 32.6 188.5075 
L 229.52 188.5075 
" style="fill: none; stroke: #8996a3; stroke-width: 0.7; stroke-linejoin: miter; stroke-linecap: square"/>
   </g>
   <g id="text_15">
    <text style="font-weight: 600; font-size: 10.8px; font-family: 'PingFang SC', 'Arial', 'DejaVu Sans', sans-serif; text-anchor: middle; fill: #263442" x="131.06" y="16.488" transform="rotate(-0 131.06 16.488)">A型</text>
   </g>
  </g>
  <g id="axes_2">
   <g id="patch_5">
    <path d="M 242.74 188.5075 
L 439.66 188.5075 
L 439.66 22.488 
L 242.74 22.488 
z
" style="fill: #ffffff"/>
   </g>
   <g id="matplotlib.axis_3">
    <g id="xtick_7">
     <g id="line2d_28">
      <path d="M 251.690909 188.5075 
L 251.690909 22.488 
" clip-path="url(#p396017aa53)" style="fill: none; stroke: #b0b0b0; stroke-opacity: 0.2; stroke-width: 0.8; stroke-linecap: square"/>
     </g>
     <g id="line2d_29">
      <g>
       <use xlink:href="#me55eac2558" x="251.690909" y="188.5075" style="fill: #536273; stroke: #536273; stroke-width: 0.8"/>
      </g>
     </g>
     <g id="text_16">
      <text style="font-size: 9px; font-family: 'PingFang SC', 'Arial', 'DejaVu Sans', sans-serif; text-anchor: middle; fill: #536273" x="251.690909" y="203.2475" transform="rotate(-0 251.690909 203.2475)">0</text>
     </g>
    </g>
    <g id="xtick_8">
     <g id="line2d_30">
      <path d="M 281.527273 188.5075 
L 281.527273 22.488 
" clip-path="url(#p396017aa53)" style="fill: none; stroke: #b0b0b0; stroke-opacity: 0.2; stroke-width: 0.8; stroke-linecap: square"/>
     </g>
     <g id="line2d_31">
      <g>
       <use xlink:href="#me55eac2558" x="281.527273" y="188.5075" style="fill: #536273; stroke: #536273; stroke-width: 0.8"/>
      </g>
     </g>
     <g id="text_17">
      <text style="font-size: 9px; font-family: 'PingFang SC', 'Arial', 'DejaVu Sans', sans-serif; text-anchor: middle; fill: #536273" x="281.527273" y="203.2475" transform="rotate(-0 281.527273 203.2475)">5</text>
     </g>
    </g>
    <g id="xtick_9">
     <g id="line2d_32">
      <path d="M 311.363636 188.5075 
L 311.363636 22.488 
" clip-path="url(#p396017aa53)" style="fill: none; stroke: #b0b0b0; stroke-opacity: 0.2; stroke-width: 0.8; stroke-linecap: square"/>
     </g>
     <g id="line2d_33">
      <g>
       <use xlink:href="#me55eac2558" x="311.363636" y="188.5075" style="fill: #536273; stroke: #536273; stroke-width: 0.8"/>
      </g>
     </g>
     <g id="text_18">
      <text style="font-size: 9px; font-family: 'PingFang SC', 'Arial', 'DejaVu Sans', sans-serif; text-anchor: middle; fill: #536273" x="311.363636" y="203.2475" transform="rotate(-0 311.363636 203.2475)">10</text>
     </g>
    </g>
    <g id="xtick_10">
     <g id="line2d_34">
      <path d="M 341.2 188.5075 
L 341.2 22.488 
" clip-path="url(#p396017aa53)" style="fill: none; stroke: #b0b0b0; stroke-opacity: 0.2; stroke-width: 0.8; stroke-linecap: square"/>
     </g>
     <g id="line2d_35">
      <g>
       <use xlink:href="#me55eac2558" x="341.2" y="188.5075" style="fill: #536273; stroke: #536273; stroke-width: 0.8"/>
      </g>
     </g>
     <g id="text_19">
      <text style="font-size: 9px; font-family: 'PingFang SC', 'Arial', 'DejaVu Sans', sans-serif; text-anchor: middle; fill: #536273" x="341.2" y="203.2475" transform="rotate(-0 341.2 203.2475)">15</text>
     </g>
    </g>
    <g id="xtick_11">
     <g id="line2d_36">
      <path d="M 371.036364 188.5075 
L 371.036364 22.488 
" clip-path="url(#p396017aa53)" style="fill: none; stroke: #b0b0b0; stroke-opacity: 0.2; stroke-width: 0.8; stroke-linecap: square"/>
     </g>
     <g id="line2d_37">
      <g>
       <use xlink:href="#me55eac2558" x="371.036364" y="188.5075" style="fill: #536273; stroke: #536273; stroke-width: 0.8"/>
      </g>
     </g>
     <g id="text_20">
      <text style="font-size: 9px; font-family: 'PingFang SC', 'Arial', 'DejaVu Sans', sans-serif; text-anchor: middle; fill: #536273" x="371.036364" y="203.2475" transform="rotate(-0 371.036364 203.2475)">20</text>
     </g>
    </g>
    <g id="xtick_12">
     <g id="line2d_38">
      <path d="M 400.872727 188.5075 
L 400.872727 22.488 
" clip-path="url(#p396017aa53)" style="fill: none; stroke: #b0b0b0; stroke-opacity: 0.2; stroke-width: 0.8; stroke-linecap: square"/>
     </g>
     <g id="line2d_39">
      <g>
       <use xlink:href="#me55eac2558" x="400.872727" y="188.5075" style="fill: #536273; stroke: #536273; stroke-width: 0.8"/>
      </g>
     </g>
     <g id="text_21">
      <text style="font-size: 9px; font-family: 'PingFang SC', 'Arial', 'DejaVu Sans', sans-serif; text-anchor: middle; fill: #536273" x="400.872727" y="203.2475" transform="rotate(-0 400.872727 203.2475)">25</text>
     </g>
    </g>
    <g id="xtick_13">
     <g id="line2d_40">
      <path d="M 430.709091 188.5075 
L 430.709091 22.488 
" clip-path="url(#p396017aa53)" style="fill: none; stroke: #b0b0b0; stroke-opacity: 0.2; stroke-width: 0.8; stroke-linecap: square"/>
     </g>
     <g id="line2d_41">
      <g>
       <use xlink:href="#me55eac2558" x="430.709091" y="188.5075" style="fill: #536273; stroke: #536273; stroke-width: 0.8"/>
      </g>
     </g>
     <g id="text_22">
      <text style="font-size: 9px; font-family: 'PingFang SC', 'Arial', 'DejaVu Sans', sans-serif; text-anchor: middle; fill: #536273" x="430.709091" y="203.2475" transform="rotate(-0 430.709091 203.2475)">30</text>
     </g>
    </g>
    <g id="text_23">
     <text style="font-size: 9px; font-family: 'PingFang SC', 'Arial', 'DejaVu Sans', sans-serif; text-anchor: middle; fill: #263442" x="341.2" y="216.2475" transform="rotate(-0 341.2 216.2475)">载荷 / kg</text>
    </g>
   </g>
   <g id="matplotlib.axis_4">
    <g id="ytick_7">
     <g id="line2d_42">
      <path d="M 242.74 164.749148 
L 439.66 164.749148 
" clip-path="url(#p396017aa53)" style="fill: none; stroke: #b0b0b0; stroke-opacity: 0.2; stroke-width: 0.8; stroke-linecap: square"/>
     </g>
     <g id="line2d_43">
      <g>
       <use xlink:href="#mb1db19d2f2" x="242.74" y="164.749148" style="fill: #536273; stroke: #536273; stroke-width: 0.8"/>
      </g>
     </g>
    </g>
    <g id="ytick_8">
     <g id="line2d_44">
      <path d="M 242.74 138.009301 
L 439.66 138.009301 
" clip-path="url(#p396017aa53)" style="fill: none; stroke: #b0b0b0; stroke-opacity: 0.2; stroke-width: 0.8; stroke-linecap: square"/>
     </g>
     <g id="line2d_45">
      <g>
       <use xlink:href="#mb1db19d2f2" x="242.74" y="138.009301" style="fill: #536273; stroke: #536273; stroke-width: 0.8"/>
      </g>
     </g>
    </g>
    <g id="ytick_9">
     <g id="line2d_46">
      <path d="M 242.74 111.269454 
L 439.66 111.269454 
" clip-path="url(#p396017aa53)" style="fill: none; stroke: #b0b0b0; stroke-opacity: 0.2; stroke-width: 0.8; stroke-linecap: square"/>
     </g>
     <g id="line2d_47">
      <g>
       <use xlink:href="#mb1db19d2f2" x="242.74" y="111.269454" style="fill: #536273; stroke: #536273; stroke-width: 0.8"/>
      </g>
     </g>
    </g>
    <g id="ytick_10">
     <g id="line2d_48">
      <path d="M 242.74 84.529608 
L 439.66 84.529608 
" clip-path="url(#p396017aa53)" style="fill: none; stroke: #b0b0b0; stroke-opacity: 0.2; stroke-width: 0.8; stroke-linecap: square"/>
     </g>
     <g id="line2d_49">
      <g>
       <use xlink:href="#mb1db19d2f2" x="242.74" y="84.529608" style="fill: #536273; stroke: #536273; stroke-width: 0.8"/>
      </g>
     </g>
    </g>
    <g id="ytick_11">
     <g id="line2d_50">
      <path d="M 242.74 57.789761 
L 439.66 57.789761 
" clip-path="url(#p396017aa53)" style="fill: none; stroke: #b0b0b0; stroke-opacity: 0.2; stroke-width: 0.8; stroke-linecap: square"/>
     </g>
     <g id="line2d_51">
      <g>
       <use xlink:href="#mb1db19d2f2" x="242.74" y="57.789761" style="fill: #536273; stroke: #536273; stroke-width: 0.8"/>
      </g>
     </g>
    </g>
    <g id="ytick_12">
     <g id="line2d_52">
      <path d="M 242.74 31.049914 
L 439.66 31.049914 
" clip-path="url(#p396017aa53)" style="fill: none; stroke: #b0b0b0; stroke-opacity: 0.2; stroke-width: 0.8; stroke-linecap: square"/>
     </g>
     <g id="line2d_53">
      <g>
       <use xlink:href="#mb1db19d2f2" x="242.74" y="31.049914" style="fill: #536273; stroke: #536273; stroke-width: 0.8"/>
      </g>
     </g>
    </g>
   </g>
   <g id="line2d_54">
    <path d="M 251.690909 180.961159 
L 253.956962 180.932887 
L 256.223015 180.888941 
L 258.489068 180.834698 
L 260.755121 180.772032 
L 263.021174 180.701994 
L 265.287227 180.62527 
L 267.55328 180.542345 
L 269.819333 180.453576 
L 272.085386 180.359235 
L 274.351438 180.259532 
L 276.617491 180.154633 
L 278.883544 180.044667 
L 281.149597 179.929734 
L 283.41565 179.809915 
L 285.681703 179.685265 
L 287.947756 179.55583 
L 290.213809 179.421635 
L 292.479862 179.282697 
L 294.745915 179.13902 
L 297.011968 178.990599 
L 299.278021 178.837418 
L 301.544074 178.679453 
L 303.810127 178.516675 
L 306.07618 178.349042 
L 308.342232 178.17651 
L 310.608285 177.999024 
L 312.874338 177.816525 
L 315.140391 177.628947 
L 317.406444 177.436216 
L 319.672497 177.238252 
L 321.93855 177.034971 
L 324.204603 176.826279 
L 326.470656 176.612078 
L 328.736709 176.392262 
L 331.002762 176.16672 
L 333.268815 175.935333 
L 335.534868 175.697975 
L 337.800921 175.454513 
L 340.066974 175.204807 
L 342.333026 174.948709 
L 344.599079 174.686063 
L 346.865132 174.416707 
L 349.131185 174.140466 
L 351.397238 173.857162 
L 353.663291 173.566603 
L 355.929344 173.268589 
L 358.195397 172.962911 
L 360.46145 172.649349 
L 362.727503 172.327671 
L 364.993556 171.997635 
L 367.259609 171.658984 
L 369.525662 171.311453 
L 371.791715 170.954758 
L 374.057768 170.588605 
L 376.32382 170.212683 
L 378.589873 169.826666 
L 380.855926 169.430209 
L 383.121979 169.022953 
L 385.388032 168.604517 
L 387.654085 168.174501 
L 389.920138 167.732484 
L 392.186191 167.278021 
L 394.452244 166.810645 
L 396.718297 166.329861 
L 398.98435 165.83515 
L 401.250403 165.325959 
L 403.516456 164.801708 
L 405.782509 164.261782 
L 408.048562 163.705529 
L 410.314614 163.132261 
L 412.580667 162.541247 
L 414.84672 161.931713 
L 417.112773 161.302837 
L 419.378826 160.653746 
L 421.644879 159.983511 
L 423.910932 159.291144 
L 426.176985 158.575595 
L 428.443038 157.835741 
L 430.709091 157.070385 
" clip-path="url(#p396017aa53)" style="fill: none; stroke: #ce853d; stroke-width: 1.5; stroke-linecap: square"/>
   </g>
   <g id="line2d_55">
    <path d="M 242.74 159.401178 
L 439.66 159.401178 
" clip-path="url(#p396017aa53)" style="fill: none; stroke-dasharray: 3.7,1.6; stroke-dashoffset: 0; stroke: #536273"/>
   </g>
   <g id="line2d_56">
    <path d="M 423.555725 188.5075 
L 423.555725 22.488 
" clip-path="url(#p396017aa53)" style="fill: none; stroke-dasharray: 1.2,1.98; stroke-dashoffset: 0; stroke: #b64a60; stroke-width: 1.2"/>
   </g>
   <g id="patch_6">
    <path d="M 242.74 188.5075 
L 242.74 22.488 
" style="fill: none; stroke: #8996a3; stroke-width: 0.7; stroke-linejoin: miter; stroke-linecap: square"/>
   </g>
   <g id="patch_7">
    <path d="M 242.74 188.5075 
L 439.66 188.5075 
" style="fill: none; stroke: #8996a3; stroke-width: 0.7; stroke-linejoin: miter; stroke-linecap: square"/>
   </g>
   <g id="text_24">
    <text style="font-weight: 600; font-size: 10.8px; font-family: 'PingFang SC', 'Arial', 'DejaVu Sans', sans-serif; text-anchor: middle; fill: #263442" x="341.2" y="16.488" transform="rotate(-0 341.2 16.488)">B型</text>
   </g>
  </g>
  <g id="axes_3">
   <g id="patch_8">
    <path d="M 452.88 188.5075 
L 649.8 188.5075 
L 649.8 22.488 
L 452.88 22.488 
z
" style="fill: #ffffff"/>
   </g>
   <g id="matplotlib.axis_5">
    <g id="xtick_14">
     <g id="line2d_57">
      <path d="M 461.830909 188.5075 
L 461.830909 22.488 
" clip-path="url(#p7dcb61f1cb)" style="fill: none; stroke: #b0b0b0; stroke-opacity: 0.2; stroke-width: 0.8; stroke-linecap: square"/>
     </g>
     <g id="line2d_58">
      <g>
       <use xlink:href="#me55eac2558" x="461.830909" y="188.5075" style="fill: #536273; stroke: #536273; stroke-width: 0.8"/>
      </g>
     </g>
     <g id="text_25">
      <text style="font-size: 9px; font-family: 'PingFang SC', 'Arial', 'DejaVu Sans', sans-serif; text-anchor: middle; fill: #536273" x="461.830909" y="203.2475" transform="rotate(-0 461.830909 203.2475)">0</text>
     </g>
    </g>
    <g id="xtick_15">
     <g id="line2d_59">
      <path d="M 506.585455 188.5075 
L 506.585455 22.488 
" clip-path="url(#p7dcb61f1cb)" style="fill: none; stroke: #b0b0b0; stroke-opacity: 0.2; stroke-width: 0.8; stroke-linecap: square"/>
     </g>
     <g id="line2d_60">
      <g>
       <use xlink:href="#me55eac2558" x="506.585455" y="188.5075" style="fill: #536273; stroke: #536273; stroke-width: 0.8"/>
      </g>
     </g>
     <g id="text_26">
      <text style="font-size: 9px; font-family: 'PingFang SC', 'Arial', 'DejaVu Sans', sans-serif; text-anchor: middle; fill: #536273" x="506.585455" y="203.2475" transform="rotate(-0 506.585455 203.2475)">20</text>
     </g>
    </g>
    <g id="xtick_16">
     <g id="line2d_61">
      <path d="M 551.34 188.5075 
L 551.34 22.488 
" clip-path="url(#p7dcb61f1cb)" style="fill: none; stroke: #b0b0b0; stroke-opacity: 0.2; stroke-width: 0.8; stroke-linecap: square"/>
     </g>
     <g id="line2d_62">
      <g>
       <use xlink:href="#me55eac2558" x="551.34" y="188.5075" style="fill: #536273; stroke: #536273; stroke-width: 0.8"/>
      </g>
     </g>
     <g id="text_27">
      <text style="font-size: 9px; font-family: 'PingFang SC', 'Arial', 'DejaVu Sans', sans-serif; text-anchor: middle; fill: #536273" x="551.34" y="203.2475" transform="rotate(-0 551.34 203.2475)">40</text>
     </g>
    </g>
    <g id="xtick_17">
     <g id="line2d_63">
      <path d="M 596.094545 188.5075 
L 596.094545 22.488 
" clip-path="url(#p7dcb61f1cb)" style="fill: none; stroke: #b0b0b0; stroke-opacity: 0.2; stroke-width: 0.8; stroke-linecap: square"/>
     </g>
     <g id="line2d_64">
      <g>
       <use xlink:href="#me55eac2558" x="596.094545" y="188.5075" style="fill: #536273; stroke: #536273; stroke-width: 0.8"/>
      </g>
     </g>
     <g id="text_28">
      <text style="font-size: 9px; font-family: 'PingFang SC', 'Arial', 'DejaVu Sans', sans-serif; text-anchor: middle; fill: #536273" x="596.094545" y="203.2475" transform="rotate(-0 596.094545 203.2475)">60</text>
     </g>
    </g>
    <g id="xtick_18">
     <g id="line2d_65">
      <path d="M 640.849091 188.5075 
L 640.849091 22.488 
" clip-path="url(#p7dcb61f1cb)" style="fill: none; stroke: #b0b0b0; stroke-opacity: 0.2; stroke-width: 0.8; stroke-linecap: square"/>
     </g>
     <g id="line2d_66">
      <g>
       <use xlink:href="#me55eac2558" x="640.849091" y="188.5075" style="fill: #536273; stroke: #536273; stroke-width: 0.8"/>
      </g>
     </g>
     <g id="text_29">
      <text style="font-size: 9px; font-family: 'PingFang SC', 'Arial', 'DejaVu Sans', sans-serif; text-anchor: middle; fill: #536273" x="640.849091" y="203.2475" transform="rotate(-0 640.849091 203.2475)">80</text>
     </g>
    </g>
    <g id="text_30">
     <text style="font-size: 9px; font-family: 'PingFang SC', 'Arial', 'DejaVu Sans', sans-serif; text-anchor: middle; fill: #263442" x="551.34" y="216.2475" transform="rotate(-0 551.34 216.2475)">载荷 / kg</text>
    </g>
   </g>
   <g id="matplotlib.axis_6">
    <g id="ytick_13">
     <g id="line2d_67">
      <path d="M 452.88 164.749148 
L 649.8 164.749148 
" clip-path="url(#p7dcb61f1cb)" style="fill: none; stroke: #b0b0b0; stroke-opacity: 0.2; stroke-width: 0.8; stroke-linecap: square"/>
     </g>
     <g id="line2d_68">
      <g>
       <use xlink:href="#mb1db19d2f2" x="452.88" y="164.749148" style="fill: #536273; stroke: #536273; stroke-width: 0.8"/>
      </g>
     </g>
    </g>
    <g id="ytick_14">
     <g id="line2d_69">
      <path d="M 452.88 138.009301 
L 649.8 138.009301 
" clip-path="url(#p7dcb61f1cb)" style="fill: none; stroke: #b0b0b0; stroke-opacity: 0.2; stroke-width: 0.8; stroke-linecap: square"/>
     </g>
     <g id="line2d_70">
      <g>
       <use xlink:href="#mb1db19d2f2" x="452.88" y="138.009301" style="fill: #536273; stroke: #536273; stroke-width: 0.8"/>
      </g>
     </g>
    </g>
    <g id="ytick_15">
     <g id="line2d_71">
      <path d="M 452.88 111.269454 
L 649.8 111.269454 
" clip-path="url(#p7dcb61f1cb)" style="fill: none; stroke: #b0b0b0; stroke-opacity: 0.2; stroke-width: 0.8; stroke-linecap: square"/>
     </g>
     <g id="line2d_72">
      <g>
       <use xlink:href="#mb1db19d2f2" x="452.88" y="111.269454" style="fill: #536273; stroke: #536273; stroke-width: 0.8"/>
      </g>
     </g>
    </g>
    <g id="ytick_16">
     <g id="line2d_73">
      <path d="M 452.88 84.529608 
L 649.8 84.529608 
" clip-path="url(#p7dcb61f1cb)" style="fill: none; stroke: #b0b0b0; stroke-opacity: 0.2; stroke-width: 0.8; stroke-linecap: square"/>
     </g>
     <g id="line2d_74">
      <g>
       <use xlink:href="#mb1db19d2f2" x="452.88" y="84.529608" style="fill: #536273; stroke: #536273; stroke-width: 0.8"/>
      </g>
     </g>
    </g>
    <g id="ytick_17">
     <g id="line2d_75">
      <path d="M 452.88 57.789761 
L 649.8 57.789761 
" clip-path="url(#p7dcb61f1cb)" style="fill: none; stroke: #b0b0b0; stroke-opacity: 0.2; stroke-width: 0.8; stroke-linecap: square"/>
     </g>
     <g id="line2d_76">
      <g>
       <use xlink:href="#mb1db19d2f2" x="452.88" y="57.789761" style="fill: #536273; stroke: #536273; stroke-width: 0.8"/>
      </g>
     </g>
    </g>
    <g id="ytick_18">
     <g id="line2d_77">
      <path d="M 452.88 31.049914 
L 649.8 31.049914 
" clip-path="url(#p7dcb61f1cb)" style="fill: none; stroke: #b0b0b0; stroke-opacity: 0.2; stroke-width: 0.8; stroke-linecap: square"/>
     </g>
     <g id="line2d_78">
      <g>
       <use xlink:href="#mb1db19d2f2" x="452.88" y="31.049914" style="fill: #536273; stroke: #536273; stroke-width: 0.8"/>
      </g>
     </g>
    </g>
   </g>
   <g id="line2d_79">
    <path d="M 461.830909 109.569599 
L 464.096962 109.493456 
L 466.363015 109.37485 
L 468.629068 109.228281 
L 470.895121 109.05877 
L 473.161174 108.869114 
L 475.427227 108.661118 
L 477.69328 108.436036 
L 479.959333 108.194781 
L 482.225386 107.938032 
L 484.491438 107.666298 
L 486.757491 107.379964 
L 489.023544 107.079317 
L 491.289597 106.764564 
L 493.55565 106.435845 
L 495.821703 106.093246 
L 498.087756 105.736806 
L 500.353809 105.36652 
L 502.619862 104.982345 
L 504.885915 104.584207 
L 507.151968 104.171996 
L 509.418021 103.745575 
L 511.684074 103.304777 
L 513.950127 102.84941 
L 516.21618 102.379254 
L 518.482232 101.894063 
L 520.748285 101.393567 
L 523.014338 100.877469 
L 525.280391 100.345448 
L 527.546444 99.797157 
L 529.812497 99.232222 
L 532.07855 98.650242 
L 534.344603 98.05079 
L 536.610656 97.43341 
L 538.876709 96.797616 
L 541.142762 96.142893 
L 543.408815 95.468692 
L 545.674868 94.774433 
L 547.940921 94.059501 
L 550.206974 93.323243 
L 552.473026 92.564969 
L 554.739079 91.78395 
L 557.005132 90.97941 
L 559.271185 90.150532 
L 561.537238 89.296449 
L 563.803291 88.416243 
L 566.069344 87.508944 
L 568.335397 86.573521 
L 570.60145 85.608884 
L 572.867503 84.613878 
L 575.133556 83.587276 
L 577.399609 82.527776 
L 579.665662 81.433997 
L 581.931715 80.304472 
L 584.197768 79.137639 
L 586.46382 77.931837 
L 588.729873 76.685299 
L 590.995926 75.39614 
L 593.261979 74.062351 
L 595.528032 72.681787 
L 597.794085 71.252154 
L 600.060138 69.771002 
L 602.326191 68.235705 
L 604.592244 66.64345 
L 606.858297 64.991218 
L 609.12435 63.275766 
L 611.390403 61.493606 
L 613.656456 59.64098 
L 615.922509 57.713838 
L 618.188562 55.707804 
L 620.454614 53.618146 
L 622.720667 51.439741 
L 624.98672 49.167029 
L 627.252773 46.793968 
L 629.518826 44.313984 
L 631.784879 41.719908 
L 634.050932 39.003905 
L 636.316985 36.157402 
L 638.583038 33.170994 
L 640.849091 30.034341 
" clip-path="url(#p7dcb61f1cb)" style="fill: none; stroke: #b64a60; stroke-width: 1.5; stroke-linecap: square"/>
   </g>
   <g id="line2d_80">
    <path d="M 452.88 73.833669 
L 649.8 73.833669 
" clip-path="url(#p7dcb61f1cb)" style="fill: none; stroke-dasharray: 3.7,1.6; stroke-dashoffset: 0; stroke: #536273"/>
   </g>
   <g id="line2d_81">
    <path d="M 593.642804 188.5075 
L 593.642804 22.488 
" clip-path="url(#p7dcb61f1cb)" style="fill: none; stroke-dasharray: 1.2,1.98; stroke-dashoffset: 0; stroke: #b64a60; stroke-width: 1.2"/>
   </g>
   <g id="patch_9">
    <path d="M 452.88 188.5075 
L 452.88 22.488 
" style="fill: none; stroke: #8996a3; stroke-width: 0.7; stroke-linejoin: miter; stroke-linecap: square"/>
   </g>
   <g id="patch_10">
    <path d="M 452.88 188.5075 
L 649.8 188.5075 
" style="fill: none; stroke: #8996a3; stroke-width: 0.7; stroke-linejoin: miter; stroke-linecap: square"/>
   </g>
   <g id="text_31">
    <text style="font-weight: 600; font-size: 10.8px; font-family: 'PingFang SC', 'Arial', 'DejaVu Sans', sans-serif; text-anchor: middle; fill: #263442" x="551.34" y="16.488" transform="rotate(-0 551.34 16.488)">C型</text>
   </g>
   <g id="legend_1">
    <g id="line2d_82">
     <path d="M 459.18 32.358 
L 466.18 32.358 
L 473.18 32.358 
" style="fill: none; stroke-dasharray: 3.7,1.6; stroke-dashoffset: 0; stroke: #536273"/>
    </g>
    <g id="text_32">
     <text style="font-size: 7px; font-family: 'PingFang SC', 'Arial', 'DejaVu Sans', sans-serif; text-anchor: start; fill: #263442" x="478.78" y="34.808" transform="rotate(-0 478.78 34.808)">20%返航储备下的可用能量</text>
    </g>
    <g id="line2d_83">
     <path d="M 459.18 42.858 
L 466.18 42.858 
L 473.18 42.858 
" style="fill: none; stroke-dasharray: 1.2,1.98; stroke-dashoffset: 0; stroke: #b64a60; stroke-width: 1.2"/>
    </g>
    <g id="text_33">
     <text style="font-size: 7px; font-family: 'PingFang SC', 'Arial', 'DejaVu Sans', sans-serif; text-anchor: start; fill: #263442" x="478.78" y="45.308" transform="rotate(-0 478.78 45.308)">最大安全载荷 58.9 kg</text>
    </g>
   </g>
  </g>
 </g>
 <defs>
  <clipPath id="pa3eb149663">
   <rect x="32.6" y="22.488" width="196.92" height="166.0195"/>
  </clipPath>
  <clipPath id="p396017aa53">
   <rect x="242.74" y="22.488" width="196.92" height="166.0195"/>
  </clipPath>
  <clipPath id="p7dcb61f1cb">
   <rect x="452.88" y="22.488" width="196.92" height="166.0195"/>
  </clipPath>
 </defs>
</svg>
